<?xml version="1.0" encoding="utf-8"?>
<!-- Generator: Adobe Illustrator 23.0.4, SVG Export Plug-In . SVG Version: 6.00 Build 0)  -->
<svg version="1.1" xmlns="http://www.w3.org/2000/svg" xmlns:xlink="http://www.w3.org/1999/xlink" x="0px" y="0px"
	 viewBox="0 0 292.28 70.87" style="enable-background:new 0 0 292.28 70.87;" xml:space="preserve">
<style type="text/css">
	.st0{fill:none;}
	.st1{fill:#FFFFFF;}
</style>
<g id="BoundingBox">
	<rect class="st0" width="292.28" height="70.87"/>
</g>
<g id="Logo_and_Slogan">
	<g>
		<polygon class="st1" points="136.88,35.34 136.88,37.16 140.07,37.16 140.07,38.77 136.88,38.77 136.88,40.73 140.2,40.73
			140.2,42.35 135.14,42.35 135.14,33.73 140.2,33.73 140.2,35.34 		"/>
		<path class="st1" d="M144.26,39.2h-0.84v3.15h-1.74v-8.61h3.18c1.68,0,2.86,0.99,2.86,2.73c0,1.32-0.68,2.21-1.73,2.55l1.82,3.33
			h-1.93L144.26,39.2z M143.42,37.59h1.35c0.68,0,1.15-0.4,1.15-1.12s-0.46-1.12-1.15-1.12h-1.35V37.59z"/>
		<polygon class="st1" points="148.95,33.73 150.69,33.73 150.69,40.73 153.77,40.73 153.77,42.35 148.95,42.35 		"/>
		<polygon class="st1" points="156.5,35.34 156.5,37.16 159.7,37.16 159.7,38.77 156.5,38.77 156.5,40.73 159.83,40.73
			159.83,42.35 154.76,42.35 154.76,33.73 159.83,33.73 159.83,35.34 		"/>
		<path class="st1" d="M167.17,39.96c0,1.32-0.79,2.39-2.66,2.39h-3.21v-8.61h3.27c1.77,0,2.51,1.04,2.51,2.28
			c0,0.89-0.4,1.59-1.06,1.97v0.05C166.76,38.37,167.17,39.06,167.17,39.96z M163.05,35.27v2h1.3c0.58,0,0.94-0.41,0.94-1.01
			c0-0.61-0.37-0.99-0.94-0.99H163.05z M165.37,39.77c0-0.62-0.37-1.02-1.06-1.02h-1.26v2.06h1.26
			C164.99,40.81,165.37,40.42,165.37,39.77z"/>
		<polygon class="st1" points="170.28,35.34 170.28,37.16 173.47,37.16 173.47,38.77 170.28,38.77 170.28,40.73 173.6,40.73
			173.6,42.35 168.54,42.35 168.54,33.73 173.6,33.73 173.6,35.34 		"/>
		<polygon class="st1" points="181.75,33.73 181.75,42.35 179.99,42.35 176.9,36.96 176.82,36.96 176.82,42.35 175.08,42.35
			175.08,33.73 176.85,33.73 179.94,39.15 180.02,39.15 180.02,33.73 		"/>
		<path class="st1" d="M185.21,40.36v1.83c0,1.34-0.54,2.19-1.99,2.26v-0.92c0.71-0.04,0.94-0.39,0.94-1.13v-0.05h-0.94v-1.99
			H185.21z"/>
		<polygon class="st1" points="199.31,33.73 197.02,42.35 195.16,42.35 193.72,36.71 193.64,36.71 192.21,42.35 190.34,42.35
			188.04,33.73 189.84,33.73 191.24,39.5 191.32,39.5 192.71,33.73 194.65,33.73 196.05,39.5 196.13,39.5 197.52,33.73 		"/>
		<path class="st1" d="M204.02,40.68h-2.97l-0.55,1.66h-1.77l2.94-8.61h1.74l2.94,8.61h-1.77L204.02,40.68z M203.48,39.06l-0.9-2.67
			h-0.08l-0.9,2.67H203.48z"/>
		<path class="st1" d="M206.7,39.91h1.73c0.15,0.72,0.63,1.01,1.26,1.01c0.75,0,1.12-0.41,1.12-0.97c0-0.54-0.36-0.81-1.03-0.99
			l-0.99-0.28c-1.38-0.37-1.92-1.37-1.92-2.45c0-1.65,1.23-2.68,2.82-2.68c1.74,0,2.68,1.01,2.85,2.59h-1.7
			c-0.12-0.64-0.48-0.97-1.15-0.97c-0.59,0-1.04,0.33-1.04,0.94c0,0.61,0.4,0.83,0.88,0.95l0.99,0.27c1.28,0.33,2.08,1.28,2.08,2.51
			c0,1.73-1.28,2.7-2.9,2.7C207.91,42.54,206.86,41.61,206.7,39.91z"/>
		<polygon class="st1" points="223.03,33.73 220.22,42.35 218.48,42.35 215.67,33.73 217.46,33.73 219.31,39.56 219.38,39.56
			221.24,33.73 		"/>
		<polygon class="st1" points="225.47,35.34 225.47,37.16 228.66,37.16 228.66,38.77 225.47,38.77 225.47,40.73 228.79,40.73
			228.79,42.35 223.73,42.35 223.73,33.73 228.79,33.73 228.79,35.34 		"/>
		<path class="st1" d="M232.85,39.2h-0.84v3.15h-1.74v-8.61h3.18c1.68,0,2.86,0.99,2.86,2.73c0,1.32-0.68,2.21-1.73,2.55l1.82,3.33
			h-1.93L232.85,39.2z M232.01,37.59h1.35c0.68,0,1.15-0.4,1.15-1.12s-0.46-1.12-1.15-1.12h-1.35V37.59z"/>
		<path class="st1" d="M243.4,39.96c0,1.32-0.79,2.39-2.66,2.39h-3.21v-8.61h3.27c1.77,0,2.51,1.04,2.51,2.28
			c0,0.89-0.4,1.59-1.06,1.97v0.05C242.99,38.37,243.4,39.06,243.4,39.96z M239.28,35.27v2h1.3c0.58,0,0.94-0.41,0.94-1.01
			c0-0.61-0.37-0.99-0.94-0.99H239.28z M241.6,39.77c0-0.62-0.37-1.02-1.06-1.02h-1.26v2.06h1.26
			C241.23,40.81,241.6,40.42,241.6,39.77z"/>
		<polygon class="st1" points="244.7,33.73 245.52,33.73 246.44,33.73 246.44,42.35 244.7,42.35 		"/>
		<polygon class="st1" points="254.8,33.73 254.8,42.35 253.04,42.35 249.95,36.96 249.87,36.96 249.87,42.35 248.13,42.35
			248.13,33.73 249.9,33.73 252.99,39.15 253.07,39.15 253.07,33.73 		"/>
		<path class="st1" d="M256.48,33.73h2.99c2.24,0,3.65,1.51,3.65,4.31s-1.41,4.31-3.65,4.31h-2.99V33.73z M259.34,40.73
			c1.2,0,1.97-0.8,1.97-2.69s-0.77-2.7-1.97-2.7h-1.12v5.39H259.34z"/>
		<polygon class="st1" points="266.13,35.34 266.13,37.16 269.33,37.16 269.33,38.77 266.13,38.77 266.13,40.73 269.46,40.73
			269.46,42.35 264.39,42.35 264.39,33.73 269.46,33.73 269.46,35.34 		"/>
		<polygon class="st1" points="270.19,33.73 276.34,33.73 276.34,35.34 274.14,35.34 274.14,42.35 272.4,42.35 272.4,35.34
			270.19,35.34 		"/>
		<polygon class="st1" points="276.12,40.36 276.96,40.36 278.1,40.36 278.1,42.35 276.12,42.35 		"/>
	</g>
	<g>
		<polygon class="st1" points="22.78,33.73 18.79,33.73 14.17,33.73 14.17,42.34 22.78,42.34 		"/>
		<path class="st1" d="M14.6,14.17l-0.43,15l2.26,0.39c0.42-4.42,1.58-7.7,3.48-9.84c2-2.24,4.75-3.41,8.29-3.51V47.6
			c0,2.74-0.38,4.52-1.18,5.34c-0.68,0.7-1.83,1.13-3.45,1.29c-0.48,0.04-1.3,0.06-2.46,0.06v2.4H42.1v-2.4
			c-1.16,0-1.98-0.02-2.46-0.06c-1.62-0.16-2.77-0.59-3.45-1.29c-0.8-0.82-1.19-2.6-1.19-5.34V16.21c3.54,0.1,6.3,1.27,8.3,3.51
			c1.9,2.14,3.06,5.42,3.48,9.84l2.26-0.39l-0.43-15H14.6z"/>
		<polygon class="st1" points="40.43,33.73 40.43,42.34 49.04,42.34 49.04,33.73 44.62,33.73 		"/>
		<polygon class="st1" points="66.26,33.73 66.26,42.34 74.87,42.34 74.87,33.73 70.68,33.73 		"/>
		<polygon class="st1" points="92.09,33.73 92.09,42.34 100.7,42.34 100.7,33.73 96.29,33.73 		"/>
	</g>
</g>
</svg>
